<svg width="53" height="33" viewBox="0 0 53 33" fill="none" xmlns="http://www.w3.org/2000/svg">
<path d="M26.8481 0C33.6572 0 39.4045 4.53941 41.2326 10.7566C41.9845 10.5632 42.7729 10.4608 43.5851 10.4607C48.7844 10.4607 52.9998 14.6754 53 19.8746C53 25.074 48.7845 29.2895 43.5851 29.2895C40.8671 29.2894 38.4199 28.1357 36.7015 26.2935C34.0665 28.593 30.6201 29.9868 26.8481 29.9868C24.6456 29.9867 22.5544 29.5107 20.6705 28.6577C18.4759 30.7738 15.4933 32.0785 12.2039 32.0785C5.46395 32.0785 6.70035e-06 26.6146 0 19.8746C0 13.1347 5.46395 7.67076 12.2039 7.67076C12.7141 7.67076 13.2169 7.70272 13.7107 7.76353C16.263 3.13542 21.1892 2.50096e-05 26.8481 0Z" fill="url(#paint0_linear_0_31)" fill-opacity="0.1"/>
<defs>
<linearGradient id="paint0_linear_0_31" x1="26.4227" y1="4.75433e-07" x2="26.4227" y2="48.8466" gradientUnits="userSpaceOnUse">
<stop stop-color="#27DCCA"/>
<stop offset="1" stop-color="#227D73"/>
</linearGradient>
</defs>
</svg>
