<svg width="19" height="19" viewBox="0 0 19 19" fill="none" xmlns="http://www.w3.org/2000/svg">
<path fill-rule="evenodd" clip-rule="evenodd" d="M2.15907 4.31814C2.73169 4.31814 3.28086 4.09067 3.68577 3.68577C4.09067 3.28086 4.31814 2.73169 4.31814 2.15907C4.31814 1.58645 4.09067 1.03728 3.68577 0.632377C3.28086 0.227473 2.73169 0 2.15907 0C1.58645 0 1.03728 0.227473 0.632377 0.632377C0.227473 1.03728 0 1.58645 0 2.15907C0 2.73169 0.227473 3.28086 0.632377 3.68577C1.03728 4.09067 1.58645 4.31814 2.15907 4.31814ZM4.31814 18.9998V6.0454H0V18.9998H4.31814ZM6.0454 6.0454H9.93173V7.72602C10.5501 6.91335 11.8714 6.0454 14.2499 6.0454C17.9894 6.0454 18.9998 9.77628 18.9998 12.0908V18.9998H14.6817V12.0908C14.6817 11.2272 14.2499 9.49992 12.5226 9.49992C11.2963 9.49992 10.4326 10.3705 9.93173 11.1849V18.9998H6.0454V6.0454Z" fill="#EEF7FC"/>
</svg>
